<svg width="151" height="151" viewBox="0 0 151 151" fill="none" xmlns="http://www.w3.org/2000/svg">
<path d="M118.017 129.4L104.667 68.5833L130.625 42.625C141.75 31.5 145.458 16.6667 141.75 9.25C134.333 5.54167 119.5 9.25 108.375 20.375L82.4167 46.3333L21.6 32.9833C17.8917 32.2417 14.925 33.725 13.4417 36.6917L11.2167 40.4C9.73333 44.1083 10.475 47.8167 13.4417 50.0417L52.75 76L37.9167 98.25H15.6667L8.25 105.667L30.5 120.5L45.3333 142.75L52.75 135.333V113.083L75 98.25L100.958 137.558C103.183 140.525 106.892 141.267 110.6 139.783L114.308 138.3C117.275 136.075 118.758 133.108 118.017 129.4V129.4Z" stroke="#0B135A" stroke-opacity="0.07" stroke-width="14.8333" stroke-linecap="round" stroke-linejoin="round"/>
</svg>
