<svg width="21" height="16" viewBox="0 0 21 16" fill="none" xmlns="http://www.w3.org/2000/svg">
<path d="M0 3.5C0 1.84315 1.34315 0.5 3 0.5H18C19.6569 0.5 21 1.84315 21 3.5V12.5C21 14.1569 19.6569 15.5 18 15.5H3C1.34315 15.5 0 14.1569 0 12.5V3.5Z" fill="#F93939"/>
<path fill-rule="evenodd" clip-rule="evenodd" d="M14.002 9.15197L12.84 9.76197L13.062 8.46897L12.122 7.55197L13.422 7.36197L14.002 6.18597L14.582 7.36297L15.882 7.55297L14.942 8.46797L15.164 9.76097" fill="white"/>
<path fill-rule="evenodd" clip-rule="evenodd" d="M9.5 11.5C11.433 11.5 13 9.933 13 8C13 6.067 11.433 4.5 9.5 4.5C7.567 4.5 6 6.067 6 8C6 9.933 7.567 11.5 9.5 11.5ZM10.5 10.5C11.88 10.5 13 9.38 13 8C13 6.62 11.88 5.5 10.5 5.5C9.12 5.5 8 6.62 8 8C8 9.38 9.12 10.5 10.5 10.5Z" fill="white"/>
</svg>
