<svg width="174" height="63" viewBox="0 0 174 63" fill="none" xmlns="http://www.w3.org/2000/svg">
<path d="M45.4639 18.7464H46.9159V15.7104H48.0559L50.0959 18.7464H51.8359L49.6279 15.5664C50.8759 15.2064 51.5239 14.3184 51.5239 12.9864C51.5239 11.4024 50.6359 10.2264 48.6079 10.2264H45.4639V18.7464ZM46.9159 14.4024V11.5224H48.3919C49.4359 11.5224 50.0239 12.0624 50.0239 12.9624C50.0239 13.8024 49.4599 14.4024 48.2959 14.4024H46.9159ZM55.4926 18.8424C56.3086 18.8424 56.9326 18.5304 57.3526 17.9664L57.3766 17.9784V18.7464H58.6606V12.8904H57.3166V13.5984L57.2926 13.6104C56.8726 13.0824 56.2246 12.8064 55.4806 12.8064C53.8726 12.8064 52.6606 14.0784 52.6606 15.8424C52.6606 17.6544 53.8726 18.8424 55.4926 18.8424ZM55.7086 17.6184C54.7126 17.6184 54.0286 16.8864 54.0286 15.8544C54.0286 14.7264 54.7726 14.0184 55.7086 14.0184C56.6686 14.0184 57.3766 14.8104 57.3766 15.8544C57.3766 16.9104 56.6206 17.6184 55.7086 17.6184ZM62.0165 18.8424C62.7845 18.8424 63.1565 18.6864 63.5045 18.4944L63.1565 17.3304C62.8445 17.4984 62.5205 17.5824 62.2925 17.5824C61.9085 17.5824 61.7285 17.3664 61.7285 16.7664V14.0304H63.4445V12.8904H61.7285V10.8024L60.3845 10.9464V12.8904H59.6645V14.0304H60.3845V16.8984C60.3845 18.2064 61.0085 18.8424 62.0165 18.8424ZM69.6501 15.7464C69.6501 14.0424 68.5341 12.8064 66.8901 12.8064C65.1741 12.8064 63.9501 14.0184 63.9501 15.8184C63.9501 17.6544 65.2101 18.8424 66.9861 18.8424C68.2461 18.8424 68.9781 18.3744 69.4701 17.7384L68.5341 16.9344C68.2341 17.3064 67.7541 17.6184 67.0581 17.6184C66.1461 17.6184 65.5101 17.1144 65.3421 16.2624H69.6141C69.6261 16.1664 69.6501 15.9624 69.6501 15.7464ZM66.8781 14.0184C67.6461 14.0184 68.1261 14.4984 68.2941 15.2064H65.3661C65.5581 14.4384 66.1341 14.0184 66.8781 14.0184ZM73.4404 18.8424C74.2804 18.8424 74.9164 18.5184 75.3484 17.9544H75.3604V18.7464H76.6444V9.91437H75.3124V13.6104H75.3004C74.8564 13.0824 74.1964 12.8064 73.4284 12.8064C71.8204 12.8064 70.5964 14.0784 70.5964 15.8424C70.5964 17.6544 71.8204 18.8424 73.4404 18.8424ZM73.6444 17.6184C72.6604 17.6184 71.9644 16.8864 71.9644 15.8544C71.9644 14.7264 72.7204 14.0184 73.6564 14.0184C74.6644 14.0184 75.3604 14.8104 75.3604 15.8544C75.3604 16.9104 74.6044 17.6184 73.6444 17.6184ZM84.1247 13.4544C83.8367 13.4544 83.4407 13.5144 83.0567 13.6344L83.1647 11.7864H86.3207V10.5024H81.8567L81.6167 14.8224L82.3727 15.0864C82.7687 14.7624 83.2127 14.6544 83.7167 14.6544C84.4967 14.6544 85.3127 15.1584 85.3127 16.0824C85.3127 16.9224 84.7007 17.5584 83.6927 17.5584C82.9607 17.5584 82.3607 17.2104 82.0127 16.7064L81.0047 17.5104C81.6527 18.3744 82.6847 18.8424 83.8127 18.8424C85.5647 18.8424 86.7287 17.7264 86.7287 16.1064C86.7287 14.4504 85.5527 13.4544 84.1247 13.4544ZM87.9382 20.0904L92.5222 9.85437L91.4662 9.36237L86.8702 19.5984L87.9382 20.0904ZM95.8944 13.4544C95.6064 13.4544 95.2104 13.5144 94.8264 13.6344L94.9344 11.7864H98.0904V10.5024H93.6264L93.3864 14.8224L94.1424 15.0864C94.5384 14.7624 94.9824 14.6544 95.4864 14.6544C96.2664 14.6544 97.0824 15.1584 97.0824 16.0824C97.0824 16.9224 96.4704 17.5584 95.4624 17.5584C94.7304 17.5584 94.1304 17.2104 93.7824 16.7064L92.7744 17.5104C93.4224 18.3744 94.4544 18.8424 95.5824 18.8424C97.3344 18.8424 98.4984 17.7264 98.4984 16.1064C98.4984 14.4504 97.3224 13.4544 95.8944 13.4544ZM105.767 18.8424C107.567 18.8424 108.839 17.6064 108.839 15.8304C108.839 14.0304 107.567 12.8064 105.767 12.8064C103.919 12.8064 102.695 14.1024 102.695 15.8304C102.695 17.5464 103.919 18.8424 105.767 18.8424ZM105.767 17.6184C104.759 17.6184 104.063 16.8264 104.063 15.8304C104.063 14.8104 104.747 14.0184 105.767 14.0184C106.727 14.0184 107.471 14.7504 107.471 15.8304C107.471 16.8864 106.715 17.6184 105.767 17.6184ZM110.158 18.7464H111.502V15.8064C111.502 14.6544 112.102 14.0184 113.014 14.0184C113.818 14.0184 114.286 14.4144 114.286 15.6504V18.7464H115.63V15.3024C115.63 13.5384 114.766 12.8064 113.482 12.8064C112.714 12.8064 112.006 13.1184 111.526 13.6944H111.502V12.8904H110.158V18.7464Z" fill="#1F2933" fill-opacity="0.5"/>
<path d="M8.88379 24.7355H26.6519V46.9456L17.7678 41.3931L8.88379 46.9456V24.7355Z" fill="#009656"/>
<path d="M17.7685 38.0616C25.1283 38.0616 31.0946 32.0953 31.0946 24.7355C31.0946 17.3757 25.1283 11.4094 17.7685 11.4094C10.4087 11.4094 4.44238 17.3757 4.44238 24.7355C4.44238 32.0953 10.4087 38.0616 17.7685 38.0616Z" fill="#F3D52D"/>
<path d="M17.7682 35.8406C23.9013 35.8406 28.8732 30.8687 28.8732 24.7355C28.8732 18.6023 23.9013 13.6304 17.7682 13.6304C11.635 13.6304 6.66309 18.6023 6.66309 24.7355C6.66309 30.8687 11.635 35.8406 17.7682 35.8406Z" fill="#EACF38"/>
<path d="M17.7682 35.8406C23.9013 35.8406 28.8732 30.8687 28.8732 24.7355C28.8732 18.6023 23.9013 13.6304 17.7682 13.6304C11.635 13.6304 6.66309 18.6023 6.66309 24.7355C6.66309 30.8687 11.635 35.8406 17.7682 35.8406Z" fill="#EACF38"/>
<path d="M16.1024 35.8406C21.3156 35.8406 25.5417 30.8687 25.5417 24.7355C25.5417 18.6023 21.3156 13.6304 16.1024 13.6304C10.8892 13.6304 6.66309 18.6023 6.66309 24.7355C6.66309 30.8687 10.8892 35.8406 16.1024 35.8406Z" fill="#E4C403"/>
<path d="M17.7679 35.5629C23.7477 35.5629 28.5953 30.7153 28.5953 24.7355C28.5953 18.7557 23.7477 13.9081 17.7679 13.9081C11.788 13.9081 6.94043 18.7557 6.94043 24.7355C6.94043 30.7153 11.788 35.5629 17.7679 35.5629Z" stroke="#DABB07" stroke-width="0.555254"/>
<path d="M17.0583 18.7639L15.4382 22.0944L11.7747 22.6203C11.1267 22.7205 10.8775 23.5219 11.351 23.9976L13.9679 26.577L13.3448 30.208C13.2451 30.8591 13.9429 31.3599 14.5162 31.0594L17.781 29.3316L21.0209 31.0594C21.5941 31.3599 22.292 30.8591 22.1922 30.208L21.5691 26.577L24.186 23.9976C24.6596 23.5219 24.4104 22.7205 23.7624 22.6203L20.1237 22.0944L18.4788 18.7639C18.2046 18.1879 17.3573 18.1629 17.0583 18.7639Z" fill="white"/>
<path d="M59.4358 40.3525C59.4358 39.8476 59.3909 39.3681 59.3142 38.9015H52.0908V41.7844H56.2268C56.0413 42.7306 55.498 43.5296 54.6926 44.0731V45.9908H57.1601C58.6048 44.6547 59.4358 42.6858 59.4358 40.3525Z" fill="#4285F4"/>
<path d="M52.0924 47.8507C54.1636 47.8507 55.896 47.1604 57.1617 45.9906L54.6942 44.0729C54.0038 44.5332 53.128 44.8144 52.0924 44.8144C50.0917 44.8144 48.3976 43.4656 47.7904 41.6436H45.2461V43.619C46.5055 46.1248 49.0945 47.8507 52.0924 47.8507Z" fill="#34A853"/>
<path d="M47.7888 41.6437C47.6289 41.1835 47.5459 40.6912 47.5459 40.1798C47.5459 39.6684 47.6354 39.1763 47.7888 38.716V36.7407H45.2446C44.7204 37.7763 44.4199 38.9397 44.4199 40.1798C44.4199 41.4199 44.7204 42.5833 45.2446 43.6189L47.7888 41.6437Z" fill="#FBBC05"/>
<path d="M52.0924 35.5455C53.224 35.5455 54.234 35.9354 55.0331 36.6962L57.2193 34.51C55.896 33.2698 54.1636 32.5091 52.0924 32.5091C49.0945 32.5091 46.5055 34.235 45.2461 36.7408L47.7904 38.7162C48.3976 36.8942 50.0917 35.5455 52.0924 35.5455Z" fill="#EA4335"/>
<path d="M76.9283 44.6145C76.4788 45.1527 75.8435 45.5717 75.0222 45.8714C74.2011 46.1654 73.2909 46.3125 72.2922 46.3125C71.2433 46.3125 70.3223 46.085 69.5288 45.63C68.7408 45.1694 68.1305 44.5036 67.6977 43.6323C67.2703 42.7611 67.0511 41.7373 67.04 40.5609V39.7369C67.04 38.5273 67.2425 37.4813 67.6477 36.599C68.0584 35.7112 68.6465 35.0341 69.4122 34.5681C70.1836 34.0964 71.0853 33.8607 72.1173 33.8607C73.5545 33.8607 74.6782 34.2047 75.4884 34.8927C76.2984 35.5752 76.7785 36.5712 76.9283 37.8809H74.4978C74.3869 37.1873 74.14 36.6795 73.7572 36.3576C73.3798 36.0358 72.8581 35.8749 72.1923 35.8749C71.3432 35.8749 70.6968 36.194 70.2529 36.832C69.8091 37.4702 69.5842 38.419 69.5788 39.6788V40.4528C69.5788 41.7235 69.8201 42.6835 70.3029 43.3327C70.7856 43.9819 71.4931 44.3065 72.4253 44.3065C73.3631 44.3065 74.0318 44.1067 74.4313 43.7072V41.6181H72.1591V39.7785H76.9283V44.6145ZM78.597 41.5598C78.597 40.6664 78.769 39.8702 79.113 39.171C79.4571 38.4717 79.951 37.9308 80.5946 37.548C81.2438 37.1649 81.9957 36.9735 82.8502 36.9735C84.0655 36.9735 85.056 37.3453 85.8217 38.0888C86.5931 38.8324 87.023 39.8424 87.1118 41.1187L87.1285 41.7346C87.1285 43.1163 86.7429 44.2261 85.9716 45.0639C85.2002 45.8963 84.1653 46.3125 82.8669 46.3125C81.5685 46.3125 80.5307 45.8963 79.7539 45.0639C78.9826 44.2317 78.597 43.0996 78.597 41.6679V41.5598ZM81.0024 41.7346C81.0024 42.5891 81.1633 43.2438 81.4851 43.699C81.807 44.1483 82.2676 44.3732 82.8669 44.3732C83.4496 44.3732 83.9045 44.1512 84.232 43.7072C84.5593 43.2578 84.7231 42.5419 84.7231 41.5598C84.7231 40.7218 84.5593 40.0727 84.232 39.6121C83.9045 39.1515 83.4439 38.9212 82.8502 38.9212C82.2621 38.9212 81.807 39.1515 81.4851 39.6121C81.1633 40.0671 81.0024 40.7747 81.0024 41.7346ZM88.406 41.5598C88.406 40.6664 88.578 39.8702 88.922 39.171C89.2661 38.4717 89.76 37.9308 90.4036 37.548C91.0528 37.1649 91.8047 36.9735 92.6592 36.9735C93.8744 36.9735 94.865 37.3453 95.6307 38.0888C96.4021 38.8324 96.832 39.8424 96.9208 41.1187L96.9375 41.7346C96.9375 43.1163 96.5519 44.2261 95.7806 45.0639C95.0092 45.8963 93.9743 46.3125 92.6759 46.3125C91.3775 46.3125 90.3397 45.8963 89.5629 45.0639C88.7916 44.2317 88.406 43.0996 88.406 41.6679V41.5598ZM90.8114 41.7346C90.8114 42.5891 90.9723 43.2438 91.2941 43.699C91.616 44.1483 92.0766 44.3732 92.6759 44.3732C93.2586 44.3732 93.7135 44.1512 94.041 43.7072C94.3683 43.2578 94.5321 42.5419 94.5321 41.5598C94.5321 40.7218 94.3683 40.0727 94.041 39.6121C93.7135 39.1515 93.2529 38.9212 92.6592 38.9212C92.0711 38.9212 91.616 39.1515 91.2941 39.6121C90.9723 40.0671 90.8114 40.7747 90.8114 41.7346ZM98.24 41.5764C98.24 40.1948 98.5673 39.0821 99.2221 38.2387C99.8824 37.3952 100.77 36.9735 101.886 36.9735C102.873 36.9735 103.642 37.312 104.191 37.989L104.291 37.14H106.472V45.8463C106.472 46.6344 106.292 47.3196 105.931 47.9023C105.576 48.4849 105.073 48.9288 104.424 49.2339C103.775 49.5392 103.015 49.6918 102.144 49.6918C101.483 49.6918 100.84 49.5587 100.213 49.2922C99.5855 49.0314 99.1111 48.6929 98.7892 48.2768L99.8546 46.8118C100.454 47.4833 101.181 47.8189 102.035 47.8189C102.674 47.8189 103.17 47.6469 103.525 47.3029C103.88 46.9644 104.058 46.4816 104.058 45.8547V45.3719C103.503 45.9989 102.773 46.3125 101.869 46.3125C100.787 46.3125 99.9102 45.8908 99.2388 45.0473C98.5729 44.1983 98.24 43.0746 98.24 41.6763V41.5764ZM100.645 41.7513C100.645 42.5669 100.809 43.2079 101.137 43.6739C101.464 44.1345 101.913 44.3648 102.485 44.3648C103.217 44.3648 103.742 44.09 104.058 43.5408V39.7536C103.736 39.2042 103.217 38.9296 102.502 38.9296C101.924 38.9296 101.469 39.1653 101.137 39.637C100.809 40.1087 100.645 40.8134 100.645 41.7513ZM111.037 46.146H108.623V33.3612H111.037V46.146ZM117.343 46.3125C116.021 46.3125 114.944 45.9073 114.112 45.0973C113.285 44.2871 112.873 43.2079 112.873 41.8595V41.6263C112.873 40.7218 113.047 39.9145 113.396 39.2042C113.746 38.4884 114.24 37.939 114.878 37.5561C115.522 37.1678 116.255 36.9735 117.075 36.9735C118.307 36.9735 119.276 37.362 119.98 38.1388C120.69 38.9158 121.045 40.0171 121.045 41.4432V42.4254H115.311C115.389 43.0135 115.621 43.4852 116.01 43.8405C116.403 44.1955 116.901 44.3732 117.499 44.3732C118.427 44.3732 119.151 44.0374 119.673 43.3659L120.854 44.6894C120.494 45.1999 120.005 45.5995 119.39 45.8879C118.773 46.1709 118.091 46.3125 117.343 46.3125ZM117.066 38.9212C116.591 38.9212 116.202 39.0821 115.902 39.404C115.607 39.7258 115.42 40.1864 115.336 40.7858H118.682V40.5943C118.67 40.0616 118.527 39.651 118.249 39.3624C117.972 39.0683 117.578 38.9212 117.066 38.9212Z" fill="#1F576F"/>
</svg>
