<svg width="190" height="63" viewBox="0 0 190 63" fill="none" xmlns="http://www.w3.org/2000/svg">
<path d="M46.1124 18.7464H47.5644V15.7104H48.7044L50.7444 18.7464H52.4844L50.2764 15.5664C51.5244 15.2064 52.1724 14.3184 52.1724 12.9864C52.1724 11.4024 51.2844 10.2264 49.2564 10.2264H46.1124V18.7464ZM47.5644 14.4024V11.5224H49.0404C50.0844 11.5224 50.6724 12.0624 50.6724 12.9624C50.6724 13.8024 50.1084 14.4024 48.9444 14.4024H47.5644ZM56.141 18.8424C56.957 18.8424 57.581 18.5304 58.001 17.9664L58.025 17.9784V18.7464H59.309V12.8904H57.965V13.5984L57.941 13.6104C57.521 13.0824 56.873 12.8064 56.129 12.8064C54.521 12.8064 53.309 14.0784 53.309 15.8424C53.309 17.6544 54.521 18.8424 56.141 18.8424ZM56.357 17.6184C55.361 17.6184 54.677 16.8864 54.677 15.8544C54.677 14.7264 55.421 14.0184 56.357 14.0184C57.317 14.0184 58.025 14.8104 58.025 15.8544C58.025 16.9104 57.269 17.6184 56.357 17.6184ZM62.665 18.8424C63.433 18.8424 63.805 18.6864 64.153 18.4944L63.805 17.3304C63.493 17.4984 63.169 17.5824 62.941 17.5824C62.557 17.5824 62.377 17.3664 62.377 16.7664V14.0304H64.093V12.8904H62.377V10.8024L61.033 10.9464V12.8904H60.313V14.0304H61.033V16.8984C61.033 18.2064 61.657 18.8424 62.665 18.8424ZM70.2985 15.7464C70.2985 14.0424 69.1825 12.8064 67.5385 12.8064C65.8225 12.8064 64.5985 14.0184 64.5985 15.8184C64.5985 17.6544 65.8585 18.8424 67.6345 18.8424C68.8945 18.8424 69.6265 18.3744 70.1185 17.7384L69.1825 16.9344C68.8825 17.3064 68.4025 17.6184 67.7065 17.6184C66.7945 17.6184 66.1585 17.1144 65.9905 16.2624H70.2625C70.2745 16.1664 70.2985 15.9624 70.2985 15.7464ZM67.5265 14.0184C68.2945 14.0184 68.7745 14.4984 68.9425 15.2064H66.0145C66.2065 14.4384 66.7825 14.0184 67.5265 14.0184ZM74.0888 18.8424C74.9288 18.8424 75.5648 18.5184 75.9968 17.9544H76.0088V18.7464H77.2928V9.91437H75.9608V13.6104H75.9488C75.5048 13.0824 74.8448 12.8064 74.0768 12.8064C72.4688 12.8064 71.2448 14.0784 71.2448 15.8424C71.2448 17.6544 72.4688 18.8424 74.0888 18.8424ZM74.2928 17.6184C73.3088 17.6184 72.6128 16.8864 72.6128 15.8544C72.6128 14.7264 73.3688 14.0184 74.3048 14.0184C75.3128 14.0184 76.0088 14.8104 76.0088 15.8544C76.0088 16.9104 75.2528 17.6184 74.2928 17.6184ZM84.7732 13.4544C84.4852 13.4544 84.0892 13.5144 83.7052 13.6344L83.8132 11.7864H86.9692V10.5024H82.5052L82.2652 14.8224L83.0212 15.0864C83.4172 14.7624 83.8612 14.6544 84.3652 14.6544C85.1452 14.6544 85.9612 15.1584 85.9612 16.0824C85.9612 16.9224 85.3492 17.5584 84.3412 17.5584C83.6092 17.5584 83.0092 17.2104 82.6612 16.7064L81.6532 17.5104C82.3012 18.3744 83.3332 18.8424 84.4612 18.8424C86.2132 18.8424 87.3772 17.7264 87.3772 16.1064C87.3772 14.4504 86.2012 13.4544 84.7732 13.4544ZM88.5866 20.0904L93.1706 9.85437L92.1146 9.36237L87.5186 19.5984L88.5866 20.0904ZM96.5429 13.4544C96.2549 13.4544 95.8589 13.5144 95.4749 13.6344L95.5829 11.7864H98.7389V10.5024H94.2749L94.0349 14.8224L94.7909 15.0864C95.1869 14.7624 95.6309 14.6544 96.1349 14.6544C96.9149 14.6544 97.7309 15.1584 97.7309 16.0824C97.7309 16.9224 97.1189 17.5584 96.1109 17.5584C95.3789 17.5584 94.7789 17.2104 94.4309 16.7064L93.4229 17.5104C94.0709 18.3744 95.1029 18.8424 96.2309 18.8424C97.9829 18.8424 99.1469 17.7264 99.1469 16.1064C99.1469 14.4504 97.9709 13.4544 96.5429 13.4544ZM106.415 18.8424C108.215 18.8424 109.487 17.6064 109.487 15.8304C109.487 14.0304 108.215 12.8064 106.415 12.8064C104.567 12.8064 103.343 14.1024 103.343 15.8304C103.343 17.5464 104.567 18.8424 106.415 18.8424ZM106.415 17.6184C105.407 17.6184 104.711 16.8264 104.711 15.8304C104.711 14.8104 105.395 14.0184 106.415 14.0184C107.375 14.0184 108.119 14.7504 108.119 15.8304C108.119 16.8864 107.363 17.6184 106.415 17.6184ZM110.807 18.7464H112.151V15.8064C112.151 14.6544 112.751 14.0184 113.663 14.0184C114.467 14.0184 114.935 14.4144 114.935 15.6504V18.7464H116.279V15.3024C116.279 13.5384 115.415 12.8064 114.131 12.8064C113.363 12.8064 112.655 13.1184 112.175 13.6944H112.151V12.8904H110.807V18.7464Z" fill="#1F2933" fill-opacity="0.5"/>
<path d="M9.53223 24.7355H27.3003V46.9456L18.4163 41.3931L9.53223 46.9456V24.7355Z" fill="#009656"/>
<path d="M18.4169 38.0616C25.7767 38.0616 31.743 32.0953 31.743 24.7355C31.743 17.3757 25.7767 11.4094 18.4169 11.4094C11.0571 11.4094 5.09082 17.3757 5.09082 24.7355C5.09082 32.0953 11.0571 38.0616 18.4169 38.0616Z" fill="#F3D52D"/>
<path d="M18.4166 35.8406C24.5498 35.8406 29.5217 30.8687 29.5217 24.7355C29.5217 18.6023 24.5498 13.6304 18.4166 13.6304C12.2834 13.6304 7.31152 18.6023 7.31152 24.7355C7.31152 30.8687 12.2834 35.8406 18.4166 35.8406Z" fill="#EACF38"/>
<path d="M18.4166 35.8406C24.5498 35.8406 29.5217 30.8687 29.5217 24.7355C29.5217 18.6023 24.5498 13.6304 18.4166 13.6304C12.2834 13.6304 7.31152 18.6023 7.31152 24.7355C7.31152 30.8687 12.2834 35.8406 18.4166 35.8406Z" fill="#EACF38"/>
<path d="M16.7508 35.8406C21.964 35.8406 26.1901 30.8687 26.1901 24.7355C26.1901 18.6023 21.964 13.6304 16.7508 13.6304C11.5376 13.6304 7.31152 18.6023 7.31152 24.7355C7.31152 30.8687 11.5376 35.8406 16.7508 35.8406Z" fill="#E4C403"/>
<path d="M18.4163 35.5629C24.3961 35.5629 29.2438 30.7153 29.2438 24.7355C29.2438 18.7557 24.3961 13.9081 18.4163 13.9081C12.4365 13.9081 7.58887 18.7557 7.58887 24.7355C7.58887 30.7153 12.4365 35.5629 18.4163 35.5629Z" stroke="#DABB07" stroke-width="0.555254"/>
<path d="M17.7067 18.7639L16.0867 22.0944L12.4231 22.6203C11.7751 22.7205 11.5259 23.5219 11.9995 23.9976L14.6164 26.577L13.9933 30.208C13.8935 30.8591 14.5914 31.3599 15.1646 31.0594L18.4294 29.3316L21.6693 31.0594C22.2426 31.3599 22.9404 30.8591 22.8407 30.208L22.2176 26.577L24.8345 23.9976C25.308 23.5219 25.0588 22.7205 24.4108 22.6203L20.7721 22.0944L19.1272 18.7639C18.8531 18.1879 18.0057 18.1629 17.7067 18.7639Z" fill="white"/>
<path d="M51.3244 34.9333C50.383 34.9333 50.1109 35.3508 50.1109 36.2717V37.7994H52.6219L52.3702 40.2675H50.1118V47.7576H47.0984V40.2675H45.0684V37.7994H47.0984V36.3137C47.0984 33.8241 48.1023 32.5091 50.903 32.5091C51.4899 32.5077 52.0764 32.5426 52.6589 32.6135V34.9362L51.3244 34.9333Z" fill="#1877F2"/>
<path d="M52.832 42.4643C52.832 39.682 54.15 37.5866 56.9117 37.5866C58.4179 37.5866 59.3378 38.3612 59.7778 39.323V37.7993H62.6644V47.7575H59.7778V46.2513C59.3593 47.2141 58.4179 47.9672 56.9117 47.9672C54.15 47.9672 52.832 45.8747 52.832 43.0896V42.4643ZM55.8445 43.1344C55.8445 44.6192 56.3878 45.6025 57.7897 45.6025C59.0247 45.6025 59.652 44.7031 59.652 43.2808V42.2809C59.652 40.8585 59.0247 39.9591 57.7897 39.9591C56.3878 39.9591 55.8445 40.9424 55.8445 42.4272V43.1344Z" fill="#1877F2"/>
<path d="M68.9408 37.5897C70.1115 37.5897 71.2206 37.8414 71.8274 38.2589L71.1582 40.3934C70.5306 40.0945 69.8448 39.9372 69.1496 39.9329C67.5175 39.9329 66.8083 40.8743 66.8083 42.4859V43.0712C66.8083 44.6828 67.5195 45.6242 69.1496 45.6242C69.8448 45.6198 70.5306 45.4626 71.1582 45.1637L71.8274 47.2972C71.2206 47.7157 70.1124 47.9674 68.9408 47.9674C65.4045 47.9674 63.7939 46.0632 63.7939 43.0088V42.5483C63.7939 39.494 65.4045 37.5897 68.9408 37.5897Z" fill="#1877F2"/>
<path d="M72.2217 43.1592V42.2812C72.2217 39.457 73.8323 37.5987 77.1179 37.5987C80.2142 37.5987 81.5741 39.4814 81.5741 42.2432V43.8333H75.2331C75.2966 45.1932 75.9033 45.7999 77.5744 45.7999C78.705 45.7999 79.8971 45.5697 80.7761 45.1932L81.3273 47.2564C80.5322 47.6759 78.9002 47.989 77.4573 47.989C73.644 47.988 72.2217 46.0858 72.2217 43.1592ZM75.2341 41.8617H78.8748V41.611C78.8748 40.5233 78.4358 39.66 77.1188 39.66C75.758 39.6609 75.2341 40.5194 75.2341 41.8578V41.8617Z" fill="#1877F2"/>
<path d="M92.7395 43.0929C92.7395 45.8751 91.4011 47.9706 88.6423 47.9706C87.1361 47.9706 86.0903 47.2175 85.6718 46.2546V47.7608H82.8271V32.7991L85.8396 32.526V39.1791C86.2786 38.3011 87.2414 37.589 88.6433 37.589C91.405 37.589 92.7405 39.6815 92.7405 42.4666L92.7395 43.0929ZM89.7271 42.4023C89.7271 41.0004 89.1837 39.9547 87.7399 39.9547C86.5049 39.9547 85.8357 40.8326 85.8357 42.2559V43.3017C85.8357 44.724 86.5049 45.603 87.7399 45.603C89.1837 45.603 89.7271 44.5572 89.7271 43.1554V42.4023Z" fill="#1877F2"/>
<path d="M93.7461 43.0294V42.528C93.7461 39.6609 95.3782 37.5898 98.7047 37.5898C102.031 37.5898 103.664 39.6609 103.664 42.528V43.0294C103.664 45.8955 102.032 47.9675 98.7057 47.9675C95.3791 47.9675 93.7461 45.8955 93.7461 43.0294ZM100.651 42.3182C100.651 41.0003 100.107 39.9545 98.6998 39.9545C97.2931 39.9545 96.7537 41.0003 96.7537 42.3182V43.2391C96.7537 44.5571 97.298 45.6028 98.6998 45.6028C100.102 45.6028 100.651 44.5571 100.651 43.2391V42.3182Z" fill="#1877F2"/>
<path d="M104.671 43.0293V42.5278C104.671 39.6608 106.303 37.5897 109.63 37.5897C112.956 37.5897 114.588 39.6608 114.588 42.5278V43.0293C114.588 45.8954 112.956 47.9674 109.63 47.9674C106.303 47.9674 104.671 45.8954 104.671 43.0293ZM111.576 42.3181C111.576 41.0002 111.031 39.9544 109.63 39.9544C108.228 39.9544 107.684 41.0002 107.684 42.3181V43.239C107.684 44.557 108.228 45.6027 109.63 45.6027C111.031 45.6027 111.576 44.557 111.576 43.239V42.3181Z" fill="#1877F2"/>
<path d="M118.728 42.5486L121.699 37.7997H124.899L121.783 42.7164L125.025 47.7579H121.825L118.728 42.8803V47.7579H115.715V32.7991L118.728 32.526V42.5486Z" fill="#1877F2"/>
</svg>
