<svg width="188" height="63" viewBox="0 0 188 63" fill="none" xmlns="http://www.w3.org/2000/svg">
<path d="M46.1397 18.7464H47.5917V15.7104H48.7317L50.7717 18.7464H52.5117L50.3037 15.5664C51.5517 15.2064 52.1997 14.3184 52.1997 12.9864C52.1997 11.4024 51.3117 10.2264 49.2837 10.2264H46.1397V18.7464ZM47.5917 14.4024V11.5224H49.0677C50.1117 11.5224 50.6997 12.0624 50.6997 12.9624C50.6997 13.8024 50.1357 14.4024 48.9717 14.4024H47.5917ZM56.1684 18.8424C56.9844 18.8424 57.6084 18.5304 58.0284 17.9664L58.0524 17.9784V18.7464H59.3364V12.8904H57.9924V13.5984L57.9684 13.6104C57.5484 13.0824 56.9004 12.8064 56.1564 12.8064C54.5484 12.8064 53.3364 14.0784 53.3364 15.8424C53.3364 17.6544 54.5484 18.8424 56.1684 18.8424ZM56.3844 17.6184C55.3884 17.6184 54.7044 16.8864 54.7044 15.8544C54.7044 14.7264 55.4484 14.0184 56.3844 14.0184C57.3444 14.0184 58.0524 14.8104 58.0524 15.8544C58.0524 16.9104 57.2964 17.6184 56.3844 17.6184ZM62.6923 18.8424C63.4603 18.8424 63.8323 18.6864 64.1803 18.4944L63.8323 17.3304C63.5203 17.4984 63.1963 17.5824 62.9683 17.5824C62.5843 17.5824 62.4043 17.3664 62.4043 16.7664V14.0304H64.1203V12.8904H62.4043V10.8024L61.0603 10.9464V12.8904H60.3403V14.0304H61.0603V16.8984C61.0603 18.2064 61.6843 18.8424 62.6923 18.8424ZM70.3259 15.7464C70.3259 14.0424 69.2099 12.8064 67.5659 12.8064C65.8499 12.8064 64.6259 14.0184 64.6259 15.8184C64.6259 17.6544 65.8859 18.8424 67.6619 18.8424C68.9219 18.8424 69.6539 18.3744 70.1459 17.7384L69.2099 16.9344C68.9099 17.3064 68.4299 17.6184 67.7339 17.6184C66.8219 17.6184 66.1859 17.1144 66.0179 16.2624H70.2899C70.3019 16.1664 70.3259 15.9624 70.3259 15.7464ZM67.5539 14.0184C68.3219 14.0184 68.8019 14.4984 68.9699 15.2064H66.0419C66.2339 14.4384 66.8099 14.0184 67.5539 14.0184ZM74.1162 18.8424C74.9562 18.8424 75.5922 18.5184 76.0242 17.9544H76.0362V18.7464H77.3202V9.91437H75.9882V13.6104H75.9762C75.5322 13.0824 74.8722 12.8064 74.1042 12.8064C72.4962 12.8064 71.2722 14.0784 71.2722 15.8424C71.2722 17.6544 72.4962 18.8424 74.1162 18.8424ZM74.3202 17.6184C73.3362 17.6184 72.6402 16.8864 72.6402 15.8544C72.6402 14.7264 73.3962 14.0184 74.3322 14.0184C75.3402 14.0184 76.0362 14.8104 76.0362 15.8544C76.0362 16.9104 75.2802 17.6184 74.3202 17.6184ZM85.2325 18.7464H86.6245V17.3544H87.7645V16.1184H86.6245V10.5024H85.4605L81.6325 16.4064V17.3544H85.2325V18.7464ZM83.2525 16.1544L85.2805 12.8544V16.1544H83.2525ZM89.5971 18.8424C90.0891 18.8424 90.4971 18.4464 90.4971 17.9544C90.4971 17.4624 90.0891 17.0544 89.5971 17.0544C89.0931 17.0544 88.6851 17.4624 88.6851 17.9544C88.6851 18.4464 89.0931 18.8424 89.5971 18.8424ZM91.302 10.5024V11.7744H94.866L91.998 18.6504L93.402 18.9144L96.426 11.4264V10.5024H91.302ZM96.7274 20.0904L101.311 9.85437L100.255 9.36237L95.6594 19.5984L96.7274 20.0904ZM104.684 13.4544C104.396 13.4544 104 13.5144 103.616 13.6344L103.724 11.7864H106.88V10.5024H102.416L102.176 14.8224L102.932 15.0864C103.328 14.7624 103.772 14.6544 104.276 14.6544C105.056 14.6544 105.872 15.1584 105.872 16.0824C105.872 16.9224 105.26 17.5584 104.252 17.5584C103.52 17.5584 102.92 17.2104 102.572 16.7064L101.564 17.5104C102.212 18.3744 103.244 18.8424 104.372 18.8424C106.124 18.8424 107.288 17.7264 107.288 16.1064C107.288 14.4504 106.112 13.4544 104.684 13.4544ZM114.556 18.8424C116.356 18.8424 117.628 17.6064 117.628 15.8304C117.628 14.0304 116.356 12.8064 114.556 12.8064C112.708 12.8064 111.484 14.1024 111.484 15.8304C111.484 17.5464 112.708 18.8424 114.556 18.8424ZM114.556 17.6184C113.548 17.6184 112.852 16.8264 112.852 15.8304C112.852 14.8104 113.536 14.0184 114.556 14.0184C115.516 14.0184 116.26 14.7504 116.26 15.8304C116.26 16.8864 115.504 17.6184 114.556 17.6184ZM118.947 18.7464H120.291V15.8064C120.291 14.6544 120.891 14.0184 121.803 14.0184C122.607 14.0184 123.075 14.4144 123.075 15.6504V18.7464H124.419V15.3024C124.419 13.5384 123.555 12.8064 122.271 12.8064C121.503 12.8064 120.795 13.1184 120.315 13.6944H120.291V12.8904H118.947V18.7464Z" fill="#1F2933" fill-opacity="0.5"/>
<path d="M9.55957 24.7355H27.3277V46.9456L18.4436 41.3931L9.55957 46.9456V24.7355Z" fill="#009656"/>
<path d="M18.4443 38.0616C25.804 38.0616 31.7703 32.0953 31.7703 24.7355C31.7703 17.3757 25.804 11.4094 18.4443 11.4094C11.0845 11.4094 5.11816 17.3757 5.11816 24.7355C5.11816 32.0953 11.0845 38.0616 18.4443 38.0616Z" fill="#F3D52D"/>
<path d="M18.4439 35.8406C24.5771 35.8406 29.549 30.8687 29.549 24.7355C29.549 18.6023 24.5771 13.6304 18.4439 13.6304C12.3108 13.6304 7.33887 18.6023 7.33887 24.7355C7.33887 30.8687 12.3108 35.8406 18.4439 35.8406Z" fill="#EACF38"/>
<path d="M18.4439 35.8406C24.5771 35.8406 29.549 30.8687 29.549 24.7355C29.549 18.6023 24.5771 13.6304 18.4439 13.6304C12.3108 13.6304 7.33887 18.6023 7.33887 24.7355C7.33887 30.8687 12.3108 35.8406 18.4439 35.8406Z" fill="#EACF38"/>
<path d="M16.7782 35.8406C21.9914 35.8406 26.2175 30.8687 26.2175 24.7355C26.2175 18.6023 21.9914 13.6304 16.7782 13.6304C11.565 13.6304 7.33887 18.6023 7.33887 24.7355C7.33887 30.8687 11.565 35.8406 16.7782 35.8406Z" fill="#E4C403"/>
<path d="M18.4437 35.5629C24.4235 35.5629 29.2711 30.7153 29.2711 24.7355C29.2711 18.7557 24.4235 13.9081 18.4437 13.9081C12.4638 13.9081 7.61621 18.7557 7.61621 24.7355C7.61621 30.7153 12.4638 35.5629 18.4437 35.5629Z" stroke="#DABB07" stroke-width="0.555254"/>
<path d="M17.734 18.7639L16.114 22.0944L12.4505 22.6203C11.8025 22.7205 11.5533 23.5219 12.0268 23.9976L14.6437 26.577L14.0206 30.208C13.9209 30.8591 14.6187 31.3599 15.192 31.0594L18.4567 29.3316L21.6967 31.0594C22.2699 31.3599 22.9677 30.8591 22.868 30.208L22.2449 26.577L24.8618 23.9976C25.3353 23.5219 25.0861 22.7205 24.4382 22.6203L20.7995 22.0944L19.1546 18.7639C18.8804 18.1879 18.0331 18.1629 17.734 18.7639Z" fill="white"/>
<g clip-path="url(#clip0_322_1316)">
<path d="M69.6704 35.1727H79.2281V36.9559H75.47V46.9801H73.4035V36.9559H69.6621V35.1727H69.6704ZM78.8198 38.4308H80.5863V40.0806H80.6196C80.678 39.8473 80.7863 39.6223 80.9446 39.4057C81.1029 39.189 81.2946 38.9807 81.5196 38.8057C81.7446 38.6224 81.9945 38.4808 82.2695 38.3641C82.5445 38.2558 82.8278 38.1974 83.1111 38.1974C83.3278 38.1974 83.4861 38.2058 83.5694 38.2141C83.6528 38.2224 83.7361 38.2391 83.8277 38.2474V40.064C83.6944 40.039 83.5611 40.0223 83.4194 40.0057C83.2778 39.989 83.1445 39.9807 83.0111 39.9807C82.6945 39.9807 82.3945 40.0473 82.1112 40.1723C81.8279 40.2973 81.5862 40.4889 81.3779 40.7306C81.1696 40.9806 81.003 41.2806 80.878 41.6472C80.753 42.0138 80.6946 42.4305 80.6946 42.9054V46.9718H78.8114V38.4308H78.8198ZM92.4854 46.9801H90.6356V45.7886H90.6023C90.3689 46.2219 90.0273 46.5635 89.569 46.8218C89.1107 47.0801 88.6441 47.2135 88.1691 47.2135C87.0442 47.2135 86.2276 46.9385 85.7276 46.3802C85.2276 45.8219 84.9777 44.9803 84.9777 43.8554V38.4308H86.8609V43.672C86.8609 44.422 87.0025 44.9553 87.2942 45.2636C87.5775 45.5719 87.9858 45.7302 88.5024 45.7302C88.9024 45.7302 89.2273 45.6719 89.494 45.5469C89.7606 45.4219 89.9773 45.2636 90.1356 45.0553C90.3023 44.8553 90.4189 44.6053 90.4939 44.322C90.5689 44.0387 90.6023 43.7304 90.6023 43.3971V38.4391H92.4854V46.9801ZM95.6935 44.2387C95.7519 44.7886 95.9602 45.1719 96.3185 45.3969C96.6851 45.6136 97.1184 45.7302 97.6267 45.7302C97.8017 45.7302 98.0017 45.7136 98.2267 45.6886C98.4517 45.6636 98.6683 45.6052 98.86 45.5302C99.06 45.4553 99.2183 45.3386 99.3516 45.1886C99.4766 45.0386 99.5349 44.847 99.5266 44.6053C99.5183 44.3637 99.4266 44.1637 99.26 44.0137C99.0933 43.8554 98.885 43.7387 98.6267 43.6387C98.3684 43.5471 98.0767 43.4637 97.7434 43.3971C97.4101 43.3304 97.0768 43.2554 96.7351 43.1804C96.3852 43.1054 96.0435 43.0054 95.7185 42.8971C95.3936 42.7888 95.1019 42.6388 94.8436 42.4471C94.5853 42.2638 94.377 42.0222 94.227 41.7305C94.0687 41.4389 93.9937 41.0806 93.9937 40.6473C93.9937 40.1806 94.1103 39.7973 94.3353 39.4807C94.5603 39.164 94.8519 38.9141 95.1936 38.7224C95.5436 38.5308 95.9269 38.3974 96.3518 38.3141C96.7768 38.2391 97.1851 38.1974 97.5684 38.1974C98.01 38.1974 98.435 38.2474 98.835 38.3391C99.235 38.4308 99.6016 38.5808 99.9266 38.7974C100.252 39.0057 100.518 39.2807 100.735 39.614C100.951 39.9473 101.085 40.3556 101.143 40.8306H99.1766C99.085 40.3806 98.885 40.0723 98.56 39.9223C98.235 39.764 97.8601 39.689 97.4434 39.689C97.3101 39.689 97.1518 39.6973 96.9685 39.7223C96.7851 39.7473 96.6185 39.789 96.4518 39.8473C96.2935 39.9057 96.1602 39.9973 96.0435 40.114C95.9352 40.2306 95.8769 40.3806 95.8769 40.5723C95.8769 40.8056 95.9602 40.9889 96.1185 41.1306C96.2768 41.2722 96.4852 41.3889 96.7435 41.4889C97.0018 41.5805 97.2934 41.6639 97.6267 41.7305C97.96 41.7972 98.3017 41.8722 98.6517 41.9472C98.9933 42.0222 99.3266 42.1222 99.6599 42.2305C99.9932 42.3388 100.285 42.4888 100.543 42.6805C100.802 42.8721 101.01 43.1054 101.168 43.3887C101.326 43.672 101.41 44.0304 101.41 44.447C101.41 44.9553 101.293 45.3803 101.06 45.7386C100.827 46.0885 100.527 46.3802 100.16 46.5968C99.7932 46.8135 99.3766 46.9801 98.9266 47.0801C98.4767 47.1801 98.0267 47.2301 97.5851 47.2301C97.0434 47.2301 96.5435 47.1718 96.0852 47.0468C95.6269 46.9218 95.2269 46.7385 94.8936 46.4968C94.5603 46.2469 94.2936 45.9385 94.102 45.5719C93.9103 45.2053 93.8104 44.7636 93.7937 44.2553H95.6935V44.2387ZM101.91 38.4308H103.335V35.8643H105.218V38.4308H106.918V39.839H105.218V44.4053C105.218 44.6053 105.226 44.772 105.243 44.922C105.26 45.0636 105.301 45.1886 105.36 45.2886C105.418 45.3886 105.509 45.4636 105.634 45.5136C105.759 45.5636 105.918 45.5886 106.134 45.5886C106.268 45.5886 106.401 45.5886 106.534 45.5802C106.668 45.5719 106.801 45.5552 106.934 45.5219V46.9801C106.726 47.0051 106.518 47.0218 106.326 47.0468C106.126 47.0718 105.926 47.0801 105.718 47.0801C105.218 47.0801 104.818 47.0301 104.518 46.9385C104.218 46.8468 103.976 46.7052 103.81 46.5218C103.635 46.3385 103.526 46.1135 103.46 45.8386C103.401 45.5636 103.36 45.2469 103.351 44.897V39.8557H101.926V38.4308H101.91ZM108.251 38.4308H110.034V39.589H110.067C110.334 39.0891 110.701 38.7391 111.176 38.5224C111.651 38.3058 112.159 38.1974 112.717 38.1974C113.392 38.1974 113.976 38.3141 114.476 38.5558C114.975 38.7891 115.392 39.114 115.725 39.5307C116.059 39.9473 116.3 40.4306 116.467 40.9806C116.634 41.5305 116.717 42.1222 116.717 42.7471C116.717 43.3221 116.642 43.8804 116.492 44.4137C116.342 44.9553 116.117 45.4303 115.817 45.8469C115.517 46.2635 115.134 46.5885 114.667 46.8385C114.201 47.0885 113.659 47.2135 113.026 47.2135C112.751 47.2135 112.476 47.1885 112.201 47.1385C111.926 47.0885 111.659 47.0051 111.409 46.8968C111.159 46.7885 110.917 46.6468 110.709 46.4718C110.492 46.2969 110.317 46.0969 110.167 45.8719H110.134V50.1382H108.251V38.4308ZM114.834 42.7138C114.834 42.3305 114.784 41.9555 114.684 41.5889C114.584 41.2222 114.434 40.9056 114.234 40.6223C114.034 40.339 113.784 40.114 113.492 39.9473C113.192 39.7807 112.851 39.689 112.467 39.689C111.676 39.689 111.076 39.964 110.676 40.5139C110.276 41.0639 110.076 41.7972 110.076 42.7138C110.076 43.1471 110.126 43.5471 110.234 43.9137C110.342 44.2803 110.492 44.597 110.709 44.8636C110.917 45.1303 111.167 45.3386 111.459 45.4886C111.751 45.6469 112.092 45.7219 112.476 45.7219C112.909 45.7219 113.267 45.6302 113.567 45.4553C113.867 45.2803 114.109 45.0469 114.301 44.772C114.492 44.4887 114.634 44.172 114.717 43.8137C114.792 43.4554 114.834 43.0888 114.834 42.7138ZM118.159 35.1727H120.042V36.9559H118.159V35.1727ZM118.159 38.4308H120.042V46.9801H118.159V38.4308ZM121.725 35.1727H123.608V46.9801H121.725V35.1727ZM129.383 47.2135C128.699 47.2135 128.091 47.0968 127.558 46.8718C127.025 46.6468 126.575 46.3302 126.2 45.9386C125.833 45.5386 125.55 45.0636 125.358 44.5137C125.166 43.9637 125.066 43.3554 125.066 42.6971C125.066 42.0472 125.166 41.4472 125.358 40.8973C125.55 40.3473 125.833 39.8723 126.2 39.4724C126.566 39.0724 127.025 38.7641 127.558 38.5391C128.091 38.3141 128.699 38.1974 129.383 38.1974C130.066 38.1974 130.674 38.3141 131.208 38.5391C131.741 38.7641 132.191 39.0807 132.566 39.4724C132.933 39.8723 133.216 40.3473 133.407 40.8973C133.599 41.4472 133.699 42.0472 133.699 42.6971C133.699 43.3554 133.599 43.9637 133.407 44.5137C133.216 45.0636 132.933 45.5386 132.566 45.9386C132.199 46.3385 131.741 46.6468 131.208 46.8718C130.674 47.0968 130.066 47.2135 129.383 47.2135ZM129.383 45.7219C129.799 45.7219 130.166 45.6302 130.474 45.4553C130.783 45.2803 131.033 45.0469 131.233 44.7636C131.433 44.4803 131.574 44.1553 131.674 43.797C131.766 43.4387 131.816 43.0721 131.816 42.6971C131.816 42.3305 131.766 41.9722 131.674 41.6055C131.583 41.2389 131.433 40.9222 131.233 40.6389C131.033 40.3556 130.783 40.1306 130.474 39.9557C130.166 39.7807 129.799 39.689 129.383 39.689C128.966 39.689 128.599 39.7807 128.291 39.9557C127.983 40.1306 127.733 40.364 127.533 40.6389C127.333 40.9222 127.191 41.2389 127.091 41.6055C127 41.9722 126.95 42.3305 126.95 42.6971C126.95 43.0721 127 43.4387 127.091 43.797C127.183 44.1553 127.333 44.4803 127.533 44.7636C127.733 45.0469 127.983 45.2803 128.291 45.4553C128.599 45.6386 128.966 45.7219 129.383 45.7219ZM134.249 38.4308H135.674V35.8643H137.557V38.4308H139.257V39.839H137.557V44.4053C137.557 44.6053 137.565 44.772 137.582 44.922C137.599 45.0636 137.64 45.1886 137.699 45.2886C137.757 45.3886 137.849 45.4636 137.974 45.5136C138.099 45.5636 138.257 45.5886 138.474 45.5886C138.607 45.5886 138.74 45.5886 138.874 45.5802C139.007 45.5719 139.14 45.5552 139.274 45.5219V46.9801C139.065 47.0051 138.857 47.0218 138.665 47.0468C138.465 47.0718 138.265 47.0801 138.057 47.0801C137.557 47.0801 137.157 47.0301 136.857 46.9385C136.557 46.8468 136.316 46.7052 136.149 46.5218C135.974 46.3385 135.866 46.1135 135.799 45.8386C135.741 45.5636 135.699 45.2469 135.691 44.897V39.8557H134.266V38.4308H134.249Z" fill="#041316"/>
<path d="M67.47 35.1726H58.8373L56.1708 26.9565L53.496 35.1726L44.8633 35.1642L51.8544 40.2472L49.1796 48.4549L56.1708 43.3803L63.1536 48.4549L60.4871 40.2472L67.47 35.1726Z" fill="#00B67A"/>
<path d="M61.0882 42.1054L60.4882 40.2472L56.1719 43.3803L61.0882 42.1054Z" fill="#005128"/>
</g>
<defs>
<clipPath id="clip0_322_1316">
<rect width="94.3931" height="26.6522" fill="white" transform="translate(45.0957 26.9565)"/>
</clipPath>
</defs>
</svg>
